<svg id="图层_1" data-name="图层 1" xmlns="http://www.w3.org/2000/svg" viewBox="0 0 12 12"><title>icon</title><path d="M3.94,2.35a.35.35,0,0,0,.5,0L5.65,1.15V4.25a.14.14,0,0,0,.14.14h.42a.14.14,0,0,0,.14-.14V1.15L7.56,2.35a.35.35,0,0,0,.5-.5L6.35.14a.49.49,0,0,0-.69,0L3.94,1.86A.35.35,0,0,0,3.94,2.35Z" style="fill:#1898ff"/><path d="M11.82,6.81h0v0h0v0h0l0-.06h0v0l-1.31-2.8a.35.35,0,0,0-.32-.2H8.43a.14.14,0,0,0-.14.14v.42a.14.14,0,0,0,.14.14h1.5l1,2.1H8.86a.35.35,0,0,0-.31.19L7.72,8.31H4.27L3.44,6.67a.35.35,0,0,0-.31-.19h-2L2,4.42H3.53a.14.14,0,0,0,.14-.14V3.86a.14.14,0,0,0-.14-.14H1.81a.35.35,0,0,0-.32.2L.21,6.68v0h0l0,.06h0v0h0v0h0v4.12A1.07,1.07,0,0,0,1.25,12H10.9a.92.92,0,0,0,.92-.92V6.81ZM10.74,11.3H1.32a.44.44,0,0,1-.44-.44V7.18h2l.82,1.64A.35.35,0,0,0,4.05,9H7.93a.35.35,0,0,0,.31-.19l.82-1.64h2v3.74a.38.38,0,0,1-.38.38Z" style="fill:#1898ff"/></svg>