<svg id="图层_1" data-name="图层 1" xmlns="http://www.w3.org/2000/svg" viewBox="0 0 12 12"><title>icon</title><path d="M11.14,12H.86a.43.43,0,0,1,0-.86H11.14a.43.43,0,0,1,0,.86Zm0-1.71H.86a.43.43,0,0,1-.43-.43V7.71A1.29,1.29,0,0,1,1.71,6.43H4.46A3,3,0,0,0,3.75,5,3,3,0,0,1,6.13,0,3,3,0,0,1,9,2.94,3.06,3.06,0,0,1,8.21,5a2.57,2.57,0,0,0-.66,1.39h2.74a1.29,1.29,0,0,1,1.29,1.29V9.86A.43.43,0,0,1,11.14,10.29ZM1.29,9.43h9.43V7.71a.43.43,0,0,0-.43-.43H7.07a.43.43,0,0,1-.43-.43,3.5,3.5,0,0,1,.92-2.4A2.16,2.16,0,0,0,8.14,3,2.17,2.17,0,0,0,6.09.86a2.08,2.08,0,0,0-1.56.6A2.12,2.12,0,0,0,3.86,3a2.15,2.15,0,0,0,.54,1.41,3.71,3.71,0,0,1,1,2.44.43.43,0,0,1-.43.43H1.71a.43.43,0,0,0-.43.43Z" style="fill:#1898ff"/></svg>