<svg id="图层_1" data-name="图层 1" xmlns="http://www.w3.org/2000/svg" viewBox="0 0 12 12"><title>icon</title><path d="M2.22,2.42H9.78a.23.23,0,0,1-.22-.24L9,11.36a.2.2,0,0,1,.2-.19H2.81a.2.2,0,0,1,.2.19L2.44,2.18A.23.23,0,0,1,2.22,2.42Zm0,9a.63.63,0,0,0,.62.59H9.19a.63.63,0,0,0,.62-.59l.57-9.18a.6.6,0,0,0-.6-.64H2.22a.6.6,0,0,0-.6.64Zm9.19-9a.41.41,0,1,0,0-.83H.62a.41.41,0,1,0,0,.83Zm-7.17,0H7.79a.61.61,0,0,0,.61-.61V.61A.61.61,0,0,0,7.79,0H4.21a.61.61,0,0,0-.61.61v1.2A.61.61,0,0,0,4.21,2.42ZM4.42.61a.21.21,0,0,1-.22.21H7.79A.21.21,0,0,1,7.58.61v1.2a.21.21,0,0,1,.22-.21H4.21a.21.21,0,0,1,.22.21ZM7,9.79a.41.41,0,0,0,.83,0v-6a.41.41,0,1,0-.83,0Zm-2-6a.41.41,0,0,0-.83,0v6a.41.41,0,0,0,.83,0Z" style="fill:#1898ff"/></svg>