<svg id="图层_1" data-name="图层 1" xmlns="http://www.w3.org/2000/svg" viewBox="0 0 12 12"><title>icon</title><path d="M2.84,9.33a2.84,2.84,0,0,1-.35-5.65v0a3.38,3.38,0,0,1,6.68-.77,3.24,3.24,0,0,1-.41,6.46.35.35,0,0,1,0-.71,2.54,2.54,0,0,0,.1-5.07H8.56l0-.29a2.68,2.68,0,0,0-5.32.39,2.73,2.73,0,0,0,0,.34l.05.4H2.84a2.13,2.13,0,1,0,0,4.26.35.35,0,0,1,0,.71Z" style="fill:#1898ff"/><path d="M5.74,5.22h.52a.11.11,0,0,1,.12.12v5.94a.11.11,0,0,1-.12.12H5.74a.11.11,0,0,1-.12-.12V5.33A.11.11,0,0,1,5.74,5.22Z" style="fill:#1898ff"/><path d="M5.56,11.17,7.49,9.24a.11.11,0,0,1,.17,0L8,9.61a.11.11,0,0,1,0,.17L6.09,11.71a.11.11,0,0,1-.17,0l-.37-.37a.11.11,0,0,1,0-.17Z" style="fill:#1898ff"/><path d="M4,9.56l.37-.37a.11.11,0,0,1,.17,0l2,2a.11.11,0,0,1,0,.17l-.37.37a.11.11,0,0,1-.17,0l-2-2a.11.11,0,0,1,0-.17Z" style="fill:#1898ff"/></svg>