<svg id="图层_1" data-name="图层 1" xmlns="http://www.w3.org/2000/svg" viewBox="0 0 12 12"><title>icon</title><path d="M6,.53A15,15,0,0,1,9.92,1a4.38,4.38,0,0,1,1.13.46c.25.16.28.26.29.28s0,.11-.29.28a4.42,4.42,0,0,1-1.13.46A15,15,0,0,1,6,2.94a15,15,0,0,1-3.92-.46A4.38,4.38,0,0,1,.95,2C.7,1.85.66,1.75.66,1.74s0-.11.29-.28A4.42,4.42,0,0,1,2.08,1,15,15,0,0,1,6,.53M6,0C2.76,0,.13.78.13,1.74S2.76,3.47,6,3.47s5.87-.78,5.87-1.74S9.24,0,6,0ZM.66,1.71H.13v8.56H.66Zm11.21,0h-.53v8.56h.53Zm-.53,8.56h0s0,.11-.29.28A4.42,4.42,0,0,1,9.92,11,15.05,15.05,0,0,1,6,11.46,15,15,0,0,1,2.08,11a4.38,4.38,0,0,1-1.13-.46c-.25-.16-.28-.26-.29-.28H.13C.13,11.22,2.76,12,6,12s5.87-.78,5.87-1.74h-.53Zm0-2.81h0s0,.11-.29.28a4.42,4.42,0,0,1-1.13.46A15,15,0,0,1,6,8.66a15,15,0,0,1-3.92-.46A4.38,4.38,0,0,1,.95,7.73C.7,7.57.66,7.47.66,7.45H.13c0,1,2.63,1.74,5.87,1.74s5.87-.78,5.87-1.74h-.53Zm0-3h0s0,.11-.29.28a4.42,4.42,0,0,1-1.13.46A15,15,0,0,1,6,5.7a15,15,0,0,1-3.92-.46A4.38,4.38,0,0,1,.95,4.77C.7,4.61.66,4.51.66,4.5H.13c0,1,2.63,1.74,5.87,1.74s5.87-.78,5.87-1.74h-.53Z" style="fill:#1898ff"/></svg>