<svg id="图层_1" data-name="图层 1" xmlns="http://www.w3.org/2000/svg" viewBox="0 0 96 96"><title>icon</title><path d="M60.86,32.2A29.73,29.73,0,1,1,31,61.93,29.8,29.8,0,0,1,60.86,32.2Z" style="fill:#00aeff;fill-rule:evenodd;opacity:0.05"/><path d="M28,24.34A16.65,16.65,0,1,1,11.28,41,16.69,16.69,0,0,1,28,24.34Z" style="fill:lime;fill-rule:evenodd;opacity:0.1"/><path d="M80.91,22.52,41.12,14.58l-1.83,5.09-12,32.72a3.31,3.31,0,0,1-2.7,2.54,3.1,3.1,0,0,1-3.15-4.48l3.87-10.58L36,10.51A3.26,3.26,0,0,1,39.89,8l.41.12L85,17a3.21,3.21,0,0,1,2.7,4.48C82.64,37.89,77,54.32,70.63,70.35a50.88,50.88,0,0,1-5.09,10.18A16.49,16.49,0,0,1,52.26,87.9,18.77,18.77,0,0,1,42.9,86c-8.45-3.77-16.79-7.53-25.19-11.3a16.59,16.59,0,0,1-6.31-4.38A15.26,15.26,0,0,1,8,59.1a34.78,34.78,0,0,1,.56-4.32l.86.31c11.24,4.53,22.44,9.11,33.68,13.58a1.07,1.07,0,0,1,.76,1.12,16.18,16.18,0,0,0,1.48,7.89,7.38,7.38,0,0,0,7.68,3.92,10.84,10.84,0,0,0,7.84-5.8A68.23,68.23,0,0,0,66,64.19c4.78-12.47,9.06-25.13,13.23-37.85.46-1.27.86-2.54,1.27-3.87Z" style="fill:#9bd3ff"/><path d="M58.62,62.11a3,3,0,0,1-4,2.85l-13-4.32a3.15,3.15,0,0,1-2.09-3.21,3,3,0,0,1,2.65-2.65,4.17,4.17,0,0,1,1.58,0L56.28,59a3,3,0,0,1,2.34,3Zm5.09-12.36a2.85,2.85,0,0,1-.81,2.14,2.9,2.9,0,0,1-2.14.86,3.51,3.51,0,0,1-1.27,0L46.82,48.42a3.05,3.05,0,0,1-2.26-3.68l0-.09A2.9,2.9,0,0,1,48,42.47c1.53.41,3,1,4.43,1.42l8.65,2.85a3,3,0,0,1,2.39,3ZM69.1,36.51a2.9,2.9,0,0,1-3.26,3C64,39.11,62.13,38.55,60.3,38l-8.14-2.19a3,3,0,0,1-2.39-2.7,2.9,2.9,0,0,1,1.48-2.9,3.36,3.36,0,0,1,2.8,0l9.21,2.44,3.56,1a3.1,3.1,0,0,1,2.29,3Zm-30.22,3.1a3.26,3.26,0,0,1,3.26,3.26,3.15,3.15,0,0,1-3.05,3.05,3.26,3.26,0,0,1-3.41-3.05,3.05,3.05,0,0,1,3.05-3.05ZM44,33.1A3.21,3.21,0,0,1,40.66,30h0a2.85,2.85,0,0,1,.92-2.14A3,3,0,0,1,43.71,27a3.15,3.15,0,0,1,3.35,2.94q0,.1,0,.21a2.85,2.85,0,0,1-2.79,2.91H44ZM34,51.37a3.15,3.15,0,0,1,3.3,3s0,.07,0,.11a3,3,0,0,1-.86,2.14,3.21,3.21,0,0,1-2.09.86,3.26,3.26,0,0,1-3.5-3s0-.08,0-.12a3.05,3.05,0,0,1,3.1-3Z" style="fill:#9bd3ff"/></svg>