<svg id="图层_1" data-name="图层 1" xmlns="http://www.w3.org/2000/svg" viewBox="0 0 18 18"><title>icon</title><path d="M12.38,3.38H2.26A2.26,2.26,0,0,0,0,5.63V15.75A2.26,2.26,0,0,0,2.26,18H12.38a2.26,2.26,0,0,0,2.25-2.25V5.63A2.26,2.26,0,0,0,12.38,3.38ZM13.5,15.73a1.12,1.12,0,0,1-1.13,1.13H2.26a1.12,1.12,0,0,1-1.13-1.13V5.61A1.12,1.12,0,0,1,2.26,4.49H12.38A1.12,1.12,0,0,1,13.5,5.61Z" style="fill:#1898ff"/><path d="M3.39,7.38h7.87V8.51H3.39Zm0,2.73h7.87v1.13H3.39Zm0,2.72H7.87V14H3.39Z" style="fill:#1898ff"/><path d="M15.74,0H5.62A2.26,2.26,0,0,0,3.37,2.25H4.5A1.12,1.12,0,0,1,5.62,1.13H15.74a1.12,1.12,0,0,1,1.13,1.13V12.37a1.12,1.12,0,0,1-1.13,1.13v1.13A2.26,2.26,0,0,0,18,12.37V2.25A2.25,2.25,0,0,0,15.74,0Z" style="fill:#1898ff"/></svg>