<svg id="图层_1" data-name="图层 1" xmlns="http://www.w3.org/2000/svg" viewBox="0 0 12 12"><title>icon</title><path d="M12,.58l0,5.83a.54.54,0,0,1-.49.58h0a.4.4,0,0,1-.06.09L7.09,11.41a2,2,0,0,1-2.89,0L.59,7.8a2,2,0,0,1,0-2.89L4.92.57A.52.52,0,0,1,5,.51.54.54,0,0,1,5.6,0h5.73a.42.42,0,0,1,.17,0,.48.48,0,0,1,.42.29A.43.43,0,0,1,12,.53a.39.39,0,0,1,0,0ZM11,6.41V1H5.56l.2.2a1,1,0,0,0-.12.08L1.29,5.63a1,1,0,0,0,0,1.45l3.62,3.63a1,1,0,0,0,1.45,0l4.35-4.35a1,1,0,0,0,.09-.13l.23.23S11,6.42,11,6.41ZM5,8.82,3.21,7.07a.62.62,0,1,1,.88-.88L5.85,7.94A.62.62,0,1,1,5,8.82Z" style="fill:#1898ff;fill-rule:evenodd"/></svg>